<?xml version="1.0" encoding="UTF-8"?>
<svg version="1.1" xmlns="http://www.w3.org/2000/svg" width="251" height="221">
<path d="M0 0 C17.82 0 35.64 0 54 0 C54 68.97 54 137.94 54 209 C11.43 209 -31.14 209 -75 209 C-73.83826253 197.38262529 -71.61898347 190.6431178 -63.12109375 182.69140625 C-56.543488 177.44628049 -50.31576707 175.8400814 -42 176 C-42 173.03 -42 170.06 -42 167 C-55.84663646 169.92050645 -68.19611589 173.81226927 -76.46875 186.19921875 C-80.86539382 193.7271932 -82.02504934 200.22544408 -83 209 C-89.93 209 -96.86 209 -104 209 C-103.50273837 194.24790494 -99.84288668 181.89944968 -91 170 C-90.48953125 169.29488281 -89.9790625 168.58976563 -89.453125 167.86328125 C-79.58247172 155.42723541 -64.6623097 148.55051009 -49.1875 146.6875 C-46.79271314 146.43001642 -44.39997201 146.20641608 -42 146 C-42 145.01 -42 144.02 -42 143 C-61.71200018 144.84972551 -78.41771502 151.13458892 -91.73632812 166.42724609 C-101.82291932 178.98092084 -104.74621308 193.22349156 -107 209 C-123.17 209 -139.34 209 -156 209 C-156 194 -156 194 -154 190 C-151.95629883 189.36230469 -151.95629883 189.36230469 -149.45703125 189.171875 C-148.54759766 189.09453125 -147.63816406 189.0171875 -146.70117188 188.9375 C-145.74791016 188.875625 -144.79464844 188.81375 -143.8125 188.75 C-142.87857422 188.67265625 -141.94464844 188.5953125 -140.98242188 188.515625 C-135.97609532 188.12103769 -131.02064169 187.91666985 -126 188 C-125.62875 186.783125 -125.2575 185.56625 -124.875 184.3125 C-123.12739462 178.9593981 -120.65306101 174.03032029 -118.109375 169.015625 C-116.87639696 165.66400865 -116.79136852 164.31963487 -118 161 C-119.32512799 158.83749686 -119.32512799 158.83749686 -121.0625 156.8125 C-121.68253906 156.04164063 -122.30257812 155.27078125 -122.94140625 154.4765625 C-124.37435754 152.75267043 -125.82073886 151.03989039 -127.27734375 149.3359375 C-128.01082031 148.46195313 -128.74429688 147.58796875 -129.5 146.6875 C-130.53640625 145.48673828 -130.53640625 145.48673828 -131.59375 144.26171875 C-133 142 -133 142 -133.07421875 139.97265625 C-131.45137548 136.99252588 -129.09531799 135.6531326 -126.3125 133.75 C-121.13644268 130.08053826 -117.44429027 126.30852658 -114 121 C-113.00789799 119.66077956 -112.00980744 118.32592108 -111 117 C-106.42627261 117.50360536 -104.08542837 119.22779264 -100.625 122.1875 C-99.66335937 122.99316406 -98.70171875 123.79882812 -97.7109375 124.62890625 C-96.10016983 126.03774771 -94.51180421 127.47405885 -92.9765625 128.96484375 C-92.40679687 129.51269531 -91.83703125 130.06054688 -91.25 130.625 C-90.78078125 131.11226562 -90.3115625 131.59953125 -89.828125 132.1015625 C-86.74714731 133.6157182 -84.27201154 132.72483432 -81 132 C-78.61545968 131.1199597 -76.25954569 130.15873463 -73.9375 129.125 C-72.77089844 128.61195313 -71.60429688 128.09890625 -70.40234375 127.5703125 C-68.71818359 126.79300781 -68.71818359 126.79300781 -67 126 C-65.35644531 125.56494141 -65.35644531 125.56494141 -63.6796875 125.12109375 C-60.31501558 122.45780388 -60.39680198 121.25601305 -59.79296875 117.08984375 C-59.56292442 114.7082866 -59.36222833 112.32375331 -59.1875 109.9375 C-58.97512973 107.55055989 -58.7604069 105.16382754 -58.54296875 102.77734375 C-58.46071045 101.71765381 -58.37845215 100.65796387 -58.29370117 99.56616211 C-58 97 -58 97 -57 95 C-55.24967156 95.14183696 -53.49974466 95.28863429 -51.75 95.4375 C-50.28820312 95.55931641 -50.28820312 95.55931641 -48.796875 95.68359375 C-46.42828679 95.95154856 -44.29623832 96.39583992 -42 97 C-42.01554428 96.18647064 -42.03108856 95.37294128 -42.04710388 94.53475952 C-42.18756651 86.85490767 -42.29403794 79.17568146 -42.3626852 71.49487877 C-42.3991653 67.54631989 -42.44861409 63.59882526 -42.52807617 59.65087891 C-42.60433158 55.83823884 -42.64602958 52.02661989 -42.6641407 48.21327591 C-42.67704064 46.76112418 -42.70223354 45.30902623 -42.7401104 43.85731125 C-43.02438843 32.50668482 -43.02438843 32.50668482 -40.52880859 28.83615112 C-38.76129934 27.2931692 -37.04772936 26.13512843 -35 25 C-33.96770264 24.21181885 -33.96770264 24.21181885 -32.91455078 23.40771484 C-32.34720215 23.01277832 -31.77985352 22.6178418 -31.1953125 22.2109375 C-30.20821289 21.51931519 -30.20821289 21.51931519 -29.20117188 20.8137207 C-28.1734668 20.10155396 -28.1734668 20.10155396 -27.125 19.375 C-25.63797005 18.33470801 -24.15099254 17.29434104 -22.6640625 16.25390625 C-21.90254883 15.72297363 -21.14103516 15.19204102 -20.35644531 14.64501953 C-16.39554008 11.8799367 -12.44779336 9.09625444 -8.5 6.3125 C-7.39615967 5.53688721 -7.39615967 5.53688721 -6.27001953 4.74560547 C-2.99264069 2.54780363 -2.99264069 2.54780363 0 0 Z M36 22 C36 27.61 36 33.22 36 39 C37.98 39 39.96 39 42 39 C42 33.39 42 27.78 42 22 C40.02 22 38.04 22 36 22 Z M-35 37 C-35 41.62 -35 46.24 -35 51 C-33.68 51 -32.36 51 -31 51 C-31 46.38 -31 41.76 -31 37 C-32.32 37 -33.64 37 -35 37 Z M10 39 C10 44.61 10 50.22 10 56 C11.98 56 13.96 56 16 56 C16 50.39 16 44.78 16 39 C14.02 39 12.04 39 10 39 Z M-14 54 C-14 58.29 -14 62.58 -14 67 C-12.68 67 -11.36 67 -10 67 C-10 62.71 -10 58.42 -10 54 C-11.32 54 -12.64 54 -14 54 Z M36 57 C36 62.61 36 68.22 36 74 C37.98 74 39.96 74 42 74 C42 68.39 42 62.78 42 57 C40.02 57 38.04 57 36 57 Z M-14 70 C-14 74.29 -14 78.58 -14 83 C-12.68 83 -11.36 83 -10 83 C-10 78.71 -10 74.42 -10 70 C-11.32 70 -12.64 70 -14 70 Z M36 77 C36 82.61 36 88.22 36 94 C37.98 94 39.96 94 42 94 C42 88.39 42 82.78 42 77 C40.02 77 38.04 77 36 77 Z M-14 86 C-14 90.29 -14 94.58 -14 99 C-12.68 99 -11.36 99 -10 99 C-10 94.71 -10 90.42 -10 86 C-11.32 86 -12.64 86 -14 86 Z M10 99 C10 104.28 10 109.56 10 115 C11.98 115 13.96 115 16 115 C16 109.72 16 104.44 16 99 C14.02 99 12.04 99 10 99 Z M-32 103 C-32 107.29 -32 111.58 -32 116 C-30.68 116 -29.36 116 -28 116 C-28 111.71 -28 107.42 -28 103 C-29.32 103 -30.64 103 -32 103 Z M-32 119 C-32 123.29 -32 127.58 -32 132 C-30.68 132 -29.36 132 -28 132 C-28 127.71 -28 123.42 -28 119 C-29.32 119 -30.64 119 -32 119 Z M10 120 C10 125.28 10 130.56 10 136 C11.98 136 13.96 136 16 136 C16 130.72 16 125.44 16 120 C14.02 120 12.04 120 10 120 Z M-54 133 C-54 133.33 -54 133.66 -54 134 C-52.35 134 -50.7 134 -49 134 C-49 133.67 -49 133.34 -49 133 C-50.65 133 -52.3 133 -54 133 Z M-32 135 C-32 139.29 -32 143.58 -32 148 C-30.68 148 -29.36 148 -28 148 C-28 143.71 -28 139.42 -28 135 C-29.32 135 -30.64 135 -32 135 Z M10 141 C10 146.28 10 151.56 10 157 C11.98 157 13.96 157 16 157 C16 151.72 16 146.44 16 141 C14.02 141 12.04 141 10 141 Z M-12 151 C-12 155.29 -12 159.58 -12 164 C-10.35 164 -8.7 164 -7 164 C-7 159.71 -7 155.42 -7 151 C-8.65 151 -10.3 151 -12 151 Z M-12 167 C-12 171.29 -12 175.58 -12 180 C-10.35 180 -8.7 180 -7 180 C-7 175.71 -7 171.42 -7 167 C-8.65 167 -10.3 167 -12 167 Z M-12 183 C-12 187.29 -12 191.58 -12 196 C-10.35 196 -8.7 196 -7 196 C-7 191.71 -7 187.42 -7 183 C-8.65 183 -10.3 183 -12 183 Z M-97 201 C-96 203 -96 203 -96 203 Z " fill="#439FC6" transform="translate(175,12)"/>
<path d="M0 0 C17.82 0 35.64 0 54 0 C54 68.97 54 137.94 54 209 C36.51 209 19.02 209 1 209 C1 140.69 1 72.38 1 2 C0.34 1.67 -0.32 1.34 -1 1 C-0.67 0.67 -0.34 0.34 0 0 Z M36 22 C36 27.61 36 33.22 36 39 C37.98 39 39.96 39 42 39 C42 33.39 42 27.78 42 22 C40.02 22 38.04 22 36 22 Z M10 39 C10 44.61 10 50.22 10 56 C11.98 56 13.96 56 16 56 C16 50.39 16 44.78 16 39 C14.02 39 12.04 39 10 39 Z M36 57 C36 62.61 36 68.22 36 74 C37.98 74 39.96 74 42 74 C42 68.39 42 62.78 42 57 C40.02 57 38.04 57 36 57 Z M36 77 C36 82.61 36 88.22 36 94 C37.98 94 39.96 94 42 94 C42 88.39 42 82.78 42 77 C40.02 77 38.04 77 36 77 Z M10 99 C10 104.28 10 109.56 10 115 C11.98 115 13.96 115 16 115 C16 109.72 16 104.44 16 99 C14.02 99 12.04 99 10 99 Z M10 120 C10 125.28 10 130.56 10 136 C11.98 136 13.96 136 16 136 C16 130.72 16 125.44 16 120 C14.02 120 12.04 120 10 120 Z M10 141 C10 146.28 10 151.56 10 157 C11.98 157 13.96 157 16 157 C16 151.72 16 146.44 16 141 C14.02 141 12.04 141 10 141 Z " fill="#0D83CC" transform="translate(175,12)"/>
<path d="M0 0 C0.33 0 0.66 0 1 0 C2.09823454 63.72364687 2.09823454 63.72364687 2.125 92.3125 C2.12749756 93.25048431 2.12999512 94.18846863 2.13256836 95.15487671 C2.13836344 97.76605098 2.13704801 100.37710626 2.1328125 102.98828125 C2.13479645 103.7373172 2.1367804 104.48635315 2.13882446 105.25808716 C2.12211205 108.96353675 1.88618147 112.39675269 1 116 C-0.485 115.505 -0.485 115.505 -2 115 C-1.34 115 -0.68 115 0 115 C0 114.01 0 113.02 0 112 C-19.71200018 113.84972551 -36.41771502 120.13458892 -49.73632812 135.42724609 C-59.82291932 147.98092084 -62.74621308 162.22349156 -65 178 C-81.17 178 -97.34 178 -114 178 C-114 163 -114 163 -112 159 C-109.95629883 158.36230469 -109.95629883 158.36230469 -107.45703125 158.171875 C-106.54759766 158.09453125 -105.63816406 158.0171875 -104.70117188 157.9375 C-103.74791016 157.875625 -102.79464844 157.81375 -101.8125 157.75 C-100.87857422 157.67265625 -99.94464844 157.5953125 -98.98242188 157.515625 C-93.97609532 157.12103769 -89.02064169 156.91666985 -84 157 C-83.62875 155.783125 -83.2575 154.56625 -82.875 153.3125 C-81.12739462 147.9593981 -78.65306101 143.03032029 -76.109375 138.015625 C-74.87639696 134.66400865 -74.79136852 133.31963487 -76 130 C-77.32512799 127.83749686 -77.32512799 127.83749686 -79.0625 125.8125 C-79.99255859 124.65621094 -79.99255859 124.65621094 -80.94140625 123.4765625 C-82.37435754 121.75267043 -83.82073886 120.03989039 -85.27734375 118.3359375 C-86.01082031 117.46195312 -86.74429688 116.58796875 -87.5 115.6875 C-88.53640625 114.48673828 -88.53640625 114.48673828 -89.59375 113.26171875 C-91 111 -91 111 -91.07421875 108.97265625 C-89.45137548 105.99252588 -87.09531799 104.6531326 -84.3125 102.75 C-79.13644268 99.08053826 -75.44429027 95.30852658 -72 90 C-71.00789799 88.66077956 -70.00980744 87.32592108 -69 86 C-64.42627261 86.50360536 -62.08542837 88.22779264 -58.625 91.1875 C-57.66335937 91.99316406 -56.70171875 92.79882812 -55.7109375 93.62890625 C-54.10016983 95.03774771 -52.51180421 96.47405885 -50.9765625 97.96484375 C-50.40679687 98.51269531 -49.83703125 99.06054688 -49.25 99.625 C-48.78078125 100.11226563 -48.3115625 100.59953125 -47.828125 101.1015625 C-44.74714731 102.6157182 -42.27201154 101.72483432 -39 101 C-36.61545968 100.1199597 -34.25954569 99.15873463 -31.9375 98.125 C-30.77089844 97.61195313 -29.60429688 97.09890625 -28.40234375 96.5703125 C-26.71818359 95.79300781 -26.71818359 95.79300781 -25 95 C-23.35644531 94.56494141 -23.35644531 94.56494141 -21.6796875 94.12109375 C-18.31501558 91.45780388 -18.39680198 90.25601305 -17.79296875 86.08984375 C-17.56292442 83.7082866 -17.36222833 81.32375331 -17.1875 78.9375 C-16.97512973 76.55055989 -16.7604069 74.16382754 -16.54296875 71.77734375 C-16.46071045 70.71765381 -16.37845215 69.65796387 -16.29370117 68.56616211 C-16 66 -16 66 -15 64 C-13.24967156 64.14183696 -11.49974466 64.28863429 -9.75 64.4375 C-8.28820312 64.55931641 -8.28820312 64.55931641 -6.796875 64.68359375 C-4 65 -4 65 0 66 C0 44.22 0 22.44 0 0 Z M-12 102 C-12 102.33 -12 102.66 -12 103 C-10.35 103 -8.7 103 -7 103 C-7 102.67 -7 102.34 -7 102 C-8.65 102 -10.3 102 -12 102 Z " fill="#0D7DC3" transform="translate(133,43)"/>
<path d="M0 0 C0 10.89 0 21.78 0 33 C-11.55 33 -23.1 33 -35 33 C-33.83826253 21.38262529 -31.61898347 14.6431178 -23.12109375 6.69140625 C-15.78893071 0.8445801 -9.4674611 0 0 0 Z " fill="#6FB6D9" transform="translate(135,188)"/>
<path d="M0 0 C0.66 0.33 1.32 0.66 2 1 C-1.96 4.96 -5.92 8.92 -10 13 C-10.66 12.67 -11.32 12.34 -12 12 C-8.27653164 7.57905197 -4.70478962 3.42166518 0 0 Z " fill="#2F728E" transform="translate(96,170)"/>
</svg>
